inDegrees=no
num_controls=7
num_derivatives=13
num_iterations=97
num_multipliers=7
num_parameters=0
num_slacks=7
num_states=26
objective=0.457856
objective_accelerations=0.065575
objective_balance=0.002130
objective_effort=0.021838
objective_height=0.359138
objective_ligament=0.009174
solver_duration=1326.986193
status=Solve_Succeeded
success=true
DataType=double
version=3
OpenSimVersion=4.5
endheader
time	/jointset/ground_pelvis/pelvis_tilt/value	/jointset/ground_pelvis/pelvis_tx/value	/jointset/ground_pelvis/pelvis_ty/value	/jointset/hip_l/hip_flexion_l/value	/jointset/hip_l/hip_adduction_l/value	/jointset/hip_l/hip_rotation_l/value	/jointset/back/lumbar_extension/value	/jointset/patellofemoral_l/patellar_flexion_l/value	/jointset/knee_l/knee_flexion_l/value	/jointset/knee_l/knee_adduction_l/value	/jointset/knee_l/knee_rotation_l/value	/jointset/ankle_l/ankle_angle_l/value	/jointset/subtalar_l/subtalar_angle_l/value	/jointset/ground_pelvis/pelvis_tilt/speed	/jointset/ground_pelvis/pelvis_tx/speed	/jointset/ground_pelvis/pelvis_ty/speed	/jointset/hip_l/hip_flexion_l/speed	/jointset/hip_l/hip_adduction_l/speed	/jointset/hip_l/hip_rotation_l/speed	/jointset/back/lumbar_extension/speed	/jointset/patellofemoral_l/patellar_flexion_l/speed	/jointset/knee_l/knee_flexion_l/speed	/jointset/knee_l/knee_adduction_l/speed	/jointset/knee_l/knee_rotation_l/speed	/jointset/ankle_l/ankle_angle_l/speed	/jointset/subtalar_l/subtalar_angle_l/speed	/forceset/tau_hip_flexion_l	/forceset/tau_hip_adduction_l	/forceset/tau_hip_rotation_l	/forceset/tau_knee_flexion_l	/forceset/tau_ankle_angle_l	/forceset/tau_subtalar_angle_l	/forceset/tau_lumbar_extension	lambda_cid13_p0	lambda_cid13_p1	lambda_cid13_p2	lambda_cid13_p3	lambda_cid13_p4	lambda_cid13_p5	lambda_cid14_p0	/jointset/ground_pelvis/pelvis_tilt/accel	/jointset/ground_pelvis/pelvis_tx/accel	/jointset/ground_pelvis/pelvis_ty/accel	/jointset/hip_l/hip_flexion_l/accel	/jointset/hip_l/hip_adduction_l/accel	/jointset/hip_l/hip_rotation_l/accel	/jointset/back/lumbar_extension/accel	/jointset/patellofemoral_l/patellar_flexion_l/accel	/jointset/knee_l/knee_flexion_l/accel	/jointset/knee_l/knee_adduction_l/accel	/jointset/knee_l/knee_rotation_l/accel	/jointset/ankle_l/ankle_angle_l/accel	/jointset/subtalar_l/subtalar_angle_l/accel	gamma_cid13_p0	gamma_cid13_p1	gamma_cid13_p2	gamma_cid13_p3	gamma_cid13_p4	gamma_cid13_p5	gamma_cid14_p0
0.5	-0.4234529525851876	-0.07134402896823516	0.7526349158444942	1.279087149271419	-0.3491602539570567	-0.0334058627320105	-0.4139616764045291	0.8244921002951826	0.824492100295085	-0.03404322278683043	-0.1744406681524276	0.08386042023408742	0.09722677858761392	-1.308365730003674	-0.3964342473778549	-0.594498228152105	3.107197634102159	0.05366048876293079	0.5143830772227744	-0.261425351294294	1.617597332696557	1.617597332696425	0.2181446992641705	0.001480449274082622	-0.06311235760635557	0.03152780983593367	-0.1734877834479771	0.01026758991624001	0.0002487912461374245	-0.1573846025112137	0.0935071873289736	0.0108264432496689	0.1563480571097349	5.453955327075779	-3.890396579854301	-1.678514841951731	-8.307610481483685	-436.4541351407323	-62.77428144958689	-10.02542860847587	0.7699970923695751	0.7985150736847874	-0.4075263873676973	-2.079786295064855	0.2289022564084472	-0.5871939522117354	1.796622701236021	-1.463218618499792	-1.463218618499675	-0.3281606424153503	0.006798669532393543	-0.3003527170482878	0.1577622428295918	-2.979711633312283e-07	-5.815300858505832e-08	2.524487168581471e-06	1.043276302251503e-07	-7.049167882452146e-07	8.824201206733809e-07	-4.28280002114553e-07
0.51	-0.4364950789418233	-0.07526793002341896	0.746671064444391	1.310049204435368	-0.3486143335197187	-0.0282892754740078	-0.4164876989140428	0.8405922565550018	0.8405922565547348	-0.03188370982203634	-0.1744257026951426	0.08321377014787333	0.09754744019812479	-1.299882453816006	-0.3883064856301222	-0.5981316026419299	3.084796203445712	0.05551382488033865	0.5088668306383166	-0.2438014889896512	1.602203638259125	1.602203638259102	0.2137613876826431	0.001496979685351533	-0.066218817281874	0.03259391418744173	-0.1805113783631488	0.010599986841521	-0.0002689470052432254	-0.1584854384958114	0.09530567218462074	0.01137391800839443	0.1612338837850038	5.834237455691978	-4.02944970681285	-1.845158646951206	-8.614602880726595	-440.6720285100703	-62.91306305733495	-9.348341115361722	0.9140029705562299	0.8258504200775965	-0.3203115029715122	-2.382967896373099	0.1618153053663407	-0.5443405625386291	1.741917238055761	-1.611902321987043	-1.611902321970772	-0.4928655566782206	-0.002758932352845654	-0.3159664103925399	0.07914593508371387	-2.909357234672824e-07	-1.146848511718308e-08	2.514722688427692e-06	1.074650236827724e-07	-6.603663627040754e-07	9.396901665979925e-07	-4.222221052170075e-07
0.52	-0.44944707051887	-0.07910936472217335	0.740675065594753	1.340774716003665	-0.3480502265180156	-0.02322995079204572	-0.4188381529519145	0.8565315843773151	0.8565315843768935	-0.02976791980116261	-0.1744109397656101	0.0825360207013859	0.09787838513290528	-1.290338774084686	-0.3799409760919759	-0.6009277180590181	3.059888914971733	0.05729780163612429	0.5029305620148211	-0.2263116569659064	1.585431645196806	1.58543164519689	0.2094001104748415	0.001439943725538678	-0.06933222966095072	0.03358447468983984	-0.1875349732782872	0.01093238376679466	-0.0007866852565072604	-0.1595862744804179	0.09710415704025638	0.01192139276710726	0.1661197104603103	6.214423836063483	-4.170546344023137	-2.009122246398513	-8.93676564523779	-444.8953487020599	-63.13058765576045	-8.676298373391402	0.9820778011002598	0.8460646317674689	-0.2400745728203651	-2.580957858571356	0.2150303840839682	-0.6711983600193347	1.769816645056491	-1.738878343477294	-1.738878343477296	-0.3237537676701835	-0.007914604684058727	-0.3017432577599879	0.1426534730075498	-2.845546021851474e-07	-1.843799576444394e-08	2.462830809085623e-06	1.02439182470794e-07	-6.216362058806457e-07	9.954035860456285e-07	-4.197868453882279e-07
0.53	-0.4622986075979252	-0.08286603170404211	0.7346552881672068	1.371239086922692	-0.347468652199667	-0.01823187003087875	-0.4210145486292531	0.8722965413878502	0.8722965413880072	-0.02769572034373271	-0.1743970942209773	0.08182719865950958	0.09821885881952433	-1.279803533268095	-0.3713588094922824	-0.6028855809539485	3.032587407288999	0.05900206217313468	0.4966458847558411	-0.2090234975151059	1.56734620809168	1.567346208091745	0.2050245804077993	0.001329235966613177	-0.07242352041981724	0.03449673940747357	-0.1942778078961302	0.01098221728014665	-0.001239967816702501	-0.1610131107999207	0.09934308680848997	0.01227977341395691	0.1707306871193065	6.725283134812698	-4.238043010349817	-2.201219087556593	-9.322366406807014	-449.0790319538428	-63.26517234346915	-8.012773243549695	1.113961806817316	0.8693542523243809	-0.1524344320052512	-2.864490731786328	0.1456209794386271	-0.6134147993440061	1.699912743247557	-1.875325015208491	-1.875325015211271	-0.4967213113482789	-0.01214449655274719	-0.3115247141462851	0.06320018700370937	-2.770407899840147e-07	-1.456394930600607e-08	2.406899996931879e-06	1.003675840787601e-07	-5.82019261915549e-07	1.041378482539164e-06	-4.139111874411675e-07
0.54	-0.4750398493518444	-0.08653586470426305	0.728620173653876	1.401418494063159	-0.346870535857763	-0.01329789852040488	-0.4230197432824521	0.8878742543030942	0.8878742543038369	-0.02566772992398242	-0.1743842548809461	0.08108772316420498	0.09856799259649224	-1.268279709056337	-0.3625741797624133	-0.6039951352159166	3.002896159259799	0.06060620634731031	0.4901087118765909	-0.1920714521380692	1.547982826139426	1.547982826139472	0.2005583029356733	0.001238702805448083	-0.07546292034653715	0.03531649275960275	-0.2010206425139405	0.01103205079348892	-0.001693250376828865	-0.1624399471194329	0.1015820165767115	0.0126381540607918	0.1753416637783407	7.236239137713209	-4.310437749960226	-2.386958548242921	-9.730664578771037	-453.2714288511536	-63.4812031253201	-7.377399609845787	1.179794480133868	0.8865572578025869	-0.07041284622796311	-3.058905927864378	0.1950071115169801	-0.7216974840734265	1.702593830303791	-1.994467312902712	-1.994467312902706	-0.3419032486869611	-0.003879685132068419	-0.2913650913306898	0.1241511999065934	-2.682737878299481e-07	1.307224162992236e-09	2.346500578263093e-06	1.015645096577285e-07	-5.414211917511612e-07	1.076578842998375e-06	-4.042291315760092e-07
